<svg width="1440" height="1440" viewBox="0 0 1440 1440" fill="none" xmlns="http://www.w3.org/2000/svg">
  <defs>
    <pattern id="seigaiha" width="96" height="48" patternUnits="userSpaceOnUse">
      <path d="M0 48c16-32 32-32 48 0s32 32 48 0" stroke="#2F4639" stroke-opacity="0.09" stroke-width="1.2" fill="none"/>
      <path d="M0 36c16-26 32-26 48 0s32 26 48 0" stroke="#2F4639" stroke-opacity="0.05" stroke-width="1" fill="none"/>
    </pattern>
    <pattern id="lattice" width="88" height="88" patternUnits="userSpaceOnUse">
      <path d="M44 0v88M0 44h88M12 12l64 64M76 12 12 76" stroke="#B8914A" stroke-opacity="0.065" stroke-width="1"/>
    </pattern>
    <linearGradient id="fade-right" x1="0" x2="1" y1="0" y2="0">
      <stop offset="0" stop-color="#FFFDF8" stop-opacity="0"/>
      <stop offset="0.58" stop-color="#FFFDF8" stop-opacity="0.2"/>
      <stop offset="1" stop-color="#FFFDF8" stop-opacity="0.72"/>
    </linearGradient>
  </defs>

  <rect width="1440" height="1440" fill="url(#seigaiha)" opacity="0.72"/>
  <rect width="1440" height="1440" fill="url(#lattice)" opacity="0.44"/>

  <g opacity="0.22" stroke="#2F4639" stroke-width="7" stroke-linecap="round">
    <path d="M1160 168c-42 152-48 286-20 404 31 128 19 245-38 352"/>
    <path d="M1208 250c-46 40-88 64-127 74"/>
    <path d="M1198 374c-48 48-98 76-150 84"/>
    <path d="M1176 536c48 30 96 42 144 35"/>
    <path d="M1142 710c44 28 89 39 136 34"/>
  </g>

  <g opacity="0.16" stroke="#9E3430" stroke-width="5" stroke-linecap="round">
    <path d="M158 858c122-74 220-92 292-54 70 36 143 24 219-36"/>
    <path d="M196 936c118-40 213-41 286-3"/>
  </g>

  <rect width="1440" height="1440" fill="url(#fade-right)"/>
</svg>
